<svg width="77" height="80" viewBox="0 0 77 80" fill="none" xmlns="http://www.w3.org/2000/svg">
<path d="M0.511963 14.2978C0.512036 -1.70207 10.6711 -2.12716 19.4475 3.66007L35.0852 14.7275C41.3174 18.7232 48.5735 18.7232 54.5491 14.2978L66.2444 6.21281C70.1454 3.14471 75.7659 3.91521 75.7659 10.8935V59.83C75.7658 68.9798 71.2793 74.7251 63.97 75.4218L19.4475 79.8359C9.29413 80.8036 0.512314 72.8174 0.511963 62.6152V14.2978Z" fill="black"/>
<path d="M33.9092 29.4766C38.1064 29.4767 41.5485 36.1413 41.8984 44.6309C41.2215 43.8596 40.2871 43.3828 39.2559 43.3828C37.1888 43.3831 35.5137 45.2991 35.5137 47.6621C35.5138 50.0251 37.1889 51.9402 39.2559 51.9404C40.1261 51.9404 40.9268 51.6007 41.5625 51.0312C40.5405 57.7585 37.5006 62.6386 33.9092 62.6387C29.4795 62.6387 25.8888 55.2149 25.8887 46.0576C25.8887 36.9002 29.4794 29.4766 33.9092 29.4766Z" fill="url(#paint0_linear_3439_26720)"/>
<path d="M63.8525 30.4404C66.7627 30.4404 69.1729 35.9353 69.5928 43.1016C69.0738 42.4453 68.3769 42.0431 67.6094 42.043C66.0065 42.043 64.7072 43.7951 64.707 45.957C64.707 48.1192 66.0064 49.8721 67.6094 49.8721C68.3251 49.872 68.9803 49.5227 69.4863 48.9434C68.8576 55.4251 66.5734 60.2275 63.8525 60.2275C60.6468 60.2269 58.0479 53.5591 58.0479 45.334C58.0479 37.109 60.6468 30.441 63.8525 30.4404Z" fill="url(#paint1_linear_3439_26720)"/>
<defs>
<linearGradient id="paint0_linear_3439_26720" x1="41.5608" y1="36.1991" x2="24.4449" y2="53.3081" gradientUnits="userSpaceOnUse">
<stop stop-color="#D6D6D6"/>
<stop offset="1" stop-color="white"/>
</linearGradient>
<linearGradient id="paint1_linear_3439_26720" x1="68.5838" y1="38.9217" x2="60.9508" y2="51.1312" gradientUnits="userSpaceOnUse">
<stop stop-color="#D6D6D6"/>
<stop offset="1" stop-color="white"/>
</linearGradient>
</defs>
</svg>
